<?xml version="1.0" encoding="utf-8"?>
<!-- Generator: Adobe Illustrator 17.1.0, SVG Export Plug-In . SVG Version: 6.00 Build 0)  -->
<!DOCTYPE svg PUBLIC "-//W3C//DTD SVG 1.1//EN" "http://www.w3.org/Graphics/SVG/1.1/DTD/svg11.dtd">
<svg version="1.1" id="Layer_9" xmlns="http://www.w3.org/2000/svg" xmlns:xlink="http://www.w3.org/1999/xlink" x="0px" y="0px"
	 viewBox="35.4 4.3 248.9 244.1" enable-background="new 35.4 4.3 248.9 244.1" xml:space="preserve">
<g>
	<g>
		<g>
			<path fill="#002F6A" d="M171.5,33H170l0-18.3l-14.7-9.2L154.6,7c-1.9,4.6-5.7,8.8-10.6,12l0,0l0,0l-0.1,0
				c-6.6,3.7-24.3,12.7-43.1,12.7l0,0c-7.6,0-15.3-1.5-22.5-5.4l0,0l-1.8-1c0,4.2,0.1,12.7,0.1,20l0,0c0,5.1,0,9.5-0.2,11.6l0,0
				l-0.1,1.5l-1.5,0c-3.4,0-7.6,0-12.1,0l0,0c-10.2,0-21.4,0-25.4,0l0,0v20l1,0.2c0.7,0.1,1.5,0.2,2.3,0.2l0,0
				c1.1,0.1,1.8,0.1,2.4,0.2l0,0c0.6,0.1,1.3,0.4,1.8,1l0,0l0.3,0.4v77.3l-0.2,0.3c-0.6,1.1-1.6,1.9-2.8,2.3l0,0
				c-1.1,0.4-2.4,0.6-4.1,0.8l0,0l-0.4,0.1l-1.1,0.1v69.5c29.6-14.7,54.7-19.7,75.8-19.7l0,0c0,0,0,0,0,0l0,0c25,0,44.3,7,58.7,13.3
				l0,0c41.4,17.9,68.9,22.7,86.5,22.7l0,0c13.4,0,21.2-2.8,25.3-4.8l0,0l0-66.3l-1.5,0.1c-0.6,0-1.2,0.1-1.9,0.1l0,0
				c-4.8,0-10.7-1.1-14.3-6.2l0,0l-0.1-0.1l-16.8-36.1l0.9-0.8c5.9-5,9-11.9,9-19.6l0,0c0-1.9-0.2-3.8-0.6-5.8l0,0
				c-1.9-8.4-9.4-15.9-18.6-18.5l0,0c-1.2-0.4-2.5-0.5-3.9-0.6l0,0c-0.2,0-0.5,0-0.7-0.1l0,0l-2.1-0.2l0.8-1.9c0.4-1.1,3-7.1,4-9.5
				l0,0l-13.8-12.9l-0.6,1.2c-1.4,2.7-3.4,5.2-5.7,7l0,0l-2.6,2.1l0.2-17.6l4.4-0.2l1.1,0V33H171.5"/>
			<path fill="#FFDD00" d="M257.7,248.4c-22.7,0-52-7.7-87-22.8c-15.1-6.5-33.8-13.2-58.2-13.2c-23.8,0-49.1,6.6-75.3,19.6
				c-0.4,0.2-0.8,0.2-1.2-0.1c-0.4-0.2-0.6-0.6-0.6-1.1v-69.5c0-0.6,0.5-1.2,1.1-1.2L38,160c1.5-0.2,2.8-0.3,3.8-0.7
				c1-0.3,1.7-0.9,2.1-1.6l0-0.1l-0.1-76.7c-0.3-0.3-0.8-0.5-1-0.5c-0.6-0.1-1.3-0.2-2.2-0.2c-0.9,0-1.7-0.1-2.5-0.2l-1-0.2
				c-0.6-0.1-1-0.6-1-1.2v-20c0-0.7,0.6-1.3,1.3-1.3l1,0c6.8,0,25.9-0.1,36.5,0l0.3,0l0-0.3c0.1-1.8,0.2-5.8,0.2-11.5
				c0-7.3-0.1-15.8-0.1-20c0-0.4,0.2-0.9,0.6-1.1c0.4-0.2,0.8-0.2,1.2,0l1.8,1c6.4,3.5,13.8,5.3,22,5.3c18.3,0,35.8-8.8,42.5-12.6
				c4.8-3.2,8.4-7.3,10.2-11.5l0.7-1.5c0.2-0.3,0.4-0.6,0.8-0.7c0.3-0.1,0.7-0.1,1,0.1l14.7,9.2c0.4,0.2,0.6,0.6,0.6,1.1l0,17h49.2
				c0.7,0,1.3,0.6,1.3,1.3v23.6c0,0.7-0.5,1.2-1.2,1.3l-4.4,0.2L216,71.7l0.5-0.4c2.2-1.8,4.1-4.1,5.3-6.6l0.6-1.2
				c0.2-0.4,0.5-0.6,0.9-0.7c0.4-0.1,0.8,0,1.1,0.3L238.2,76c0.4,0.4,0.5,0.9,0.3,1.4c-1,2.3-3.6,8.4-4,9.4l-0.2,0.4l1.2,0.1
				c1.4,0.1,2.8,0.2,4.1,0.6c9.6,2.7,17.5,10.5,19.5,19.4c0.4,2,0.6,4,0.6,6c0,8-3.4,15.3-9.5,20.5l-0.2,0.2l16.4,35.2
				c2.6,3.7,7,5.6,13.2,5.6c0.6,0,1.2,0,1.8-0.1l1.5-0.1c0.3,0,0.7,0.1,0.9,0.3c0.3,0.2,0.4,0.6,0.4,0.9l0,66.3
				c0,0.5-0.3,0.9-0.7,1.1C276.8,246.8,268.1,248.4,257.7,248.4z M112.4,209.9c25.1,0,44.8,7.2,59.2,13.4c34.8,15,63.7,22.6,86,22.6
				c9.7,0,17.8-1.4,24.1-4.3l0-64.2l-0.1,0c-0.6,0-1.3,0.1-1.9,0.1c-7,0-12.2-2.3-15.3-6.8c0-0.1-0.1-0.2-0.2-0.3l-16.8-36.1
				c-0.2-0.5-0.1-1.1,0.3-1.5l0.9-0.8c5.5-4.7,8.6-11.3,8.6-18.6c0-1.8-0.2-3.7-0.6-5.5c-1.8-7.9-9.1-15.1-17.7-17.5
				c-1.1-0.3-2.4-0.4-3.7-0.5l-2.8-0.3c-0.4,0-0.7-0.3-1-0.6c-0.2-0.3-0.2-0.8-0.1-1.1l0.8-1.9c0.4-1,2.6-6.1,3.7-8.7l-11.9-11.1
				c-1.4,2.7-3.5,5.2-5.9,7.1l-2.6,2.1c-0.4,0.3-0.9,0.4-1.3,0.1c-0.4-0.2-0.7-0.7-0.7-1.1l0.2-17.6c0-0.7,0.5-1.2,1.2-1.2l4.4-0.2
				V34.3H170c-0.7,0-1.3-0.6-1.3-1.3l0-17.6l-12.9-8.1l-0.1,0.2c-2,4.7-5.8,9.1-11,12.6c-7,4-25,13-43.9,13
				c-8.6,0-16.3-1.9-23.1-5.5c0,4.6,0.1,11.7,0.1,17.9c0,5.8-0.1,9.7-0.2,11.6l-0.1,1.5c0,0.7-0.6,1.2-1.3,1.2c0,0,0,0,0,0l-1.5,0
				c-10.5,0-29.2,0-36.3,0v17.7c0.7,0.1,1.3,0.1,2.1,0.2c1.1,0.1,1.9,0.1,2.7,0.3c0.8,0.2,1.8,0.5,2.5,1.5l0.3,0.4
				c0.2,0.2,0.3,0.5,0.3,0.8v77.3c0,0.2,0,0.4-0.1,0.6l-0.2,0.3c-0.7,1.3-1.9,2.4-3.5,2.9c-1.3,0.4-2.6,0.6-4.3,0.8l-0.4,0v66.3
				C63.8,216.3,88.9,209.9,112.4,209.9z"/>
		</g>
	</g>
	<g>
		<path fill="#089C43" d="M267.2,206.7c-0.1,0-0.2,0.1-0.3,0.1c-35.6,5.6-74.8-12.1-78.6-13.6c-4.1-1.6-26.7-10.4-42.8-15.5
			c-39.9-12.6-85.9,5.1-98.7,10.7c-1.1,0.4-2.2,0.9-3.1,1.4v30c0.3-0.1,0.5-0.2,0.8-0.4c35.4-12.4,46.8-14,46.8-14
			c35.6-7.2,69.3,7.4,69.3,7.4c7.6,2.8,20.5,8.1,20.5,8.1c64,26,92.1,15.5,94.1,14.7c0.2-0.1,0.4-0.1,0.6-0.2v-30.7
			C272.3,205.9,268.8,206.4,267.2,206.7z"/>
	</g>
	<g>
		<path fill="#FFFFFF" d="M48.4,193.2c0.3,0.3,0.8,0.3,1.2,0.1l6.1-2.5c0.4-0.2,0.8-0.5,1.1-1l0,5l-0.4,0.2c-1,0.4,0.3-3.1-2.1-2.2
			l-0.5,0.2l0,14.3c0,2.1,0.9,0.2,0.9,2l0,0.4l-4.2,1.7V211c0-1.8,0.9-0.6,0.9-2.7l0-14.3l-0.5,0.2c-2.4,1-1.2,3.5-2.1,3.9l-0.4,0.2
			L48.4,193.2z"/>
		<path fill="#FFFFFF" d="M64.1,196.3l0-5.6c0-2.1-0.8-0.3-0.8-2.1v-0.4l3.9-1.4l0,0.4c0,1.8-0.8,0.5-0.8,2.6L66.4,203
			c0,2.1,0.8,0.3,0.8,2.1l0,0.4l-3.9,1.4l0-0.4c0-1.8,0.8-0.6,0.8-2.7l0-6l-3.8,1.4l0,6c0,2.1,0.8,0.3,0.8,2.1v0.4l-3.9,1.4v-0.4
			c0-1.8,0.8-0.6,0.8-2.7L58,193c0-2.1-0.8-0.3-0.8-2.1l0-0.4l3.9-1.4l0,0.4c0,1.8-0.8,0.6-0.8,2.6l0,5.6L64.1,196.3z"/>
		<path fill="#FFFFFF" d="M69.9,194.2l0.9-0.3c1.2-0.4,0.5-2,1.4-2.3l0.2-0.1l0,5.3l-0.4,0.1c-0.8,0.2-0.3-1.9-1.3-1.6l-0.9,0.3
			l0,7.4l2.3-0.7c2-0.6,1-3.7,2-4l0.3-0.1l0,4.9l-7.7,2.4v-0.5c0-1.6,0.8-0.5,0.8-2.5l0-13.1c0-2-0.8-0.4-0.8-2V187l6.1-1.9
			c0.4-0.1,0.8-0.4,1.1-0.9l0,5l-0.4,0.1c-0.8,0.2-0.3-2.8-1.9-2.3l-1.8,0.6L69.9,194.2z"/>
		<path fill="#FFFFFF" d="M85.8,187.6c-1.3,0.3-0.7-4.4-3-3.9c-2.2,0.5-2.6,5.2-2.5,8.6c0.1,3.5,0.6,8.7,2.9,8.2
			c1.1-0.3,1.4-1.4,1.4-3.2l0-1.7c-0.1-3.4-1-0.9-1-3l0-0.4l3.5-0.8c-0.3,0.7-0.3,1.4-0.3,2.1l0.1,2.9c0,0.8,0,1.2,0.5,1.2l0,0.5
			c0,1.8-3.1,3.4-4.1,3.6c-3.2,0.8-5.4-2.1-5.6-8.4c-0.1-5.4,1.7-10.3,4.6-11c1.6-0.4,2.5,0.8,2.8,0.7c0.2,0,0.2-0.3,0.3-0.6
			l0.7-0.2l0.1,5.2L85.8,187.6z"/>
		<path fill="#FFFFFF" d="M90.6,197.3c0,2,0.8,0.5,0.8,2.1l0,0.5l-3.7,0.6l0-0.5c0-1.6,0.8-0.4,0.7-2.4l-0.1-13c0-2-0.8-0.5-0.8-2.1
			l0-0.5l5.3-0.9c1-0.2,2.5,0.7,2.5,4.1c0,3.7-1.5,4.9-2.8,5.1l-0.4,0.1v0.1c1.1-0.1,1.3,0.6,1.8,2.1l1.5,4.6
			c0.4,1.2,0.8,0.1,0.9,1.4l0,0.5l-2.9,0.5l-1.9-6.3c-0.2-0.7-0.5-1.9-1-1.8l-0.1,0L90.6,197.3z M90.6,189.9l0.6-0.1
			c0.8-0.1,1.9-0.8,1.9-4c0-2.5-1-3.1-1.4-3.1l-1.2,0.2L90.6,189.9z"/>
		<path fill="#FFFFFF" d="M99.4,188.4l0.9-0.1c1.2-0.1,0.4-1.9,1.4-2l0.2,0l0,5.2l-0.4,0c-0.8,0.1-0.3-1.9-1.2-1.8l-0.9,0.1l0,7.3
			l2.2-0.2c1.9-0.2,0.9-3.5,2-3.6l0.3,0l0,4.8l-7.5,0.8v-0.5c0-1.6,0.8-0.3,0.8-2.3l0-12.9c0-2-0.7-0.6-0.7-2.2v-0.5l5.9-0.6
			c0.4,0,0.8-0.3,1.1-0.7v4.9l-0.4,0c-0.8,0.1-0.3-2.8-1.9-2.7l-1.7,0.2L99.4,188.4z"/>
		<path fill="#FFFFFF" d="M106.4,192.8l-0.4,1.8c-0.1,0.4-0.2,0.9-0.2,1.4c0,1.4,0.9,0,0.9,1.7l0,0.4l-2.8,0.1v-0.4
			c0-2,0.5,0.3,1.3-3.3l2.5-11.9l-0.1-0.6c0-0.1-0.2-0.8-0.2-1c0-0.3,0.2-0.5,0.3-0.6l1.1-1.1c0.1-0.1,0.2-0.2,0.3-0.2
			c0.2,0,0.2,0.5,0.3,0.9l3,15.1c0.4,2.1,1,0.4,1,2.2l0,0.4l-4,0.2l0-0.4c0-1.8,0.7-0.6,0.7-1.7c0-0.3,0-0.6-0.1-0.8l-0.5-2.4
			L106.4,192.8z M106.7,191.3l2.6-0.1l-1.3-6.5L106.7,191.3z"/>
		<path fill="#FFFFFF" d="M112.2,178.7c0.3,0.4,0.7,0.6,1.1,0.6l5.8,0.2c0.4,0,0.8-0.2,1.1-0.5l0,5l-0.4,0c-0.9,0,0.3-3-2-3.1
			l-0.5,0v14.3c0,2.1,0.9,0.6,0.9,2.3v0.4l-3.9-0.1v-0.4c0-1.8,0.9-0.2,0.9-2.3l0-14.3l-0.5,0c-2.3-0.1-1.1,3-2,3l-0.4,0
			L112.2,178.7z"/>
		<path fill="#FFFFFF" d="M133.7,191.5l-0.1-8.1c0-2.1-0.8-0.7-0.8-2.4l0-0.4l2.4,0.4l0,0.4c0,1.7-0.8,0.1-0.7,2.2l0.1,15.5l-1-0.2
			l-5.3-15.8l0.1,12.3c0,2,0.9,0.7,0.9,2.4l0,0.4l-2.5-0.4v-0.4c0-1.7,0.8-0.1,0.8-2.2l-0.1-12.8c0-2-0.9-0.7-0.9-2.4l0-0.4l3.2,0.5
			L133.7,191.5z"/>
		<path fill="#FFFFFF" d="M138.3,190l0.9,0.2c1.2,0.2,0.4-1.7,1.4-1.5l0.2,0v5.1l-0.4-0.1c-0.8-0.1-0.3-1.9-1.3-2.1l-0.9-0.2l0,7.2
			l2.3,0.4c2,0.4,1-3.1,2-2.9l0.3,0.1v4.7l-7.6-1.4V199c0-1.6,0.8-0.1,0.8-2l0-12.6c0-2-0.8-0.8-0.8-2.3v-0.5l6,1.1
			c0.4,0.1,0.8,0,1.1-0.4v4.8L142,187c-0.8-0.1-0.3-2.9-1.9-3.1l-1.8-0.3L138.3,190L138.3,190z"/>
		<path fill="#FFFFFF" d="M155.8,187.3c-0.1,1.6-0.5,0-1,1.9l-3.7,14.7l-0.9-0.3l-1.3-12.5l-2.9,11.2l-0.8-0.2l-1.7-16.4
			c-0.2-2.2-0.7-0.7-0.6-2.4l0-0.4l3.7,1.1l0,0.4c-0.1,1.5-0.8,0.3-0.8,1.5c0,0.3,0,0.8,0.1,1.1l0.9,8.9l1.9-7.3
			c-0.2-4.1-1-1.8-0.9-3.8l0-0.4l3.9,1.2l0,0.4c-0.1,1.8-0.8,0.3-0.9,1.6c0,0.4,0,0.8,0.1,1.2l0.9,8.7l2-7.6
			c0.1-0.4,0.2-0.9,0.2-1.3c0.1-1.3-0.8-0.3-0.7-2l0-0.4l2.5,0.7L155.8,187.3z"/>
		<path fill="#FFFFFF" d="M164.9,200.9l0,5.4c0,2.1,0.8,0.9,0.8,2.7v0.4l-3.8-1.5l0-0.4c0-1.7,0.8,0.1,0.8-2l0-4.9l-2.5-9.2
			c-0.6-2.3-1-1.1-1-2.7v-0.4l4.3,1.7l0,0.4c0,1.5-0.8,0.3-0.8,1.4c0,0.4,0.1,0.8,0.2,1.1l1.6,5.9l1.6-4.7c0.1-0.3,0.2-0.6,0.2-1
			c0-1.1-0.7-0.3-0.7-1.9v-0.4l2.6,1.1l0,0.4c0,1.6-0.4,0-1,1.5L164.9,200.9z"/>
		<path fill="#FFFFFF" d="M166.8,200.3c0.1-5.3,2.2-8.4,5.2-7.3c3,1.1,5,5.7,4.9,10.9c-0.1,5.3-2.2,8.4-5.2,7.3
			C168.7,210.2,166.7,205.6,166.8,200.3z M174.4,203.1c0-2.8-0.2-8-2.4-8.9c-2.2-0.8-2.6,4.2-2.6,7c0,2.8,0.2,8.1,2.4,8.9
			C173.9,210.9,174.3,205.9,174.4,203.1z"/>
		<path fill="#FFFFFF" d="M180,211.7c0,2,0.8,0.9,0.7,2.5l0,0.5l-3.7-1.5v-0.5c0-1.6,0.8,0.1,0.8-1.9l0.1-12.7c0-2-0.8-0.9-0.7-2.5
			v-0.5l5.3,2.1c1,0.4,2.5,2.1,2.5,5.4c0,3.6-1.6,3.9-2.8,3.4l-0.4-0.1v0.1c1.1,0.5,1.3,1.3,1.8,3.1l1.5,5.3
			c0.4,1.4,0.9,0.5,0.9,1.9l0,0.5l-2.9-1.2l-1.8-7.2c-0.2-0.8-0.5-2.2-1-2.3l-0.1,0L180,211.7z M180.1,204.5l0.6,0.3
			c0.8,0.3,1.9,0.3,1.9-2.8c0-2.4-0.9-3.6-1.4-3.8l-1.2-0.5L180.1,204.5z"/>
		<path fill="#FFFFFF" d="M188.5,208.5l0,6.7c0,2.1,0.7,0.9,0.7,2.7v0.4l-3.6-1.8v-0.4c0-1.8,0.7,0.1,0.7-2l0-13
			c0-2.1-0.7-0.9-0.7-2.7v-0.4l3.6,1.8v0.4c0,1.8-0.7-0.1-0.7,2l0,5.3l2.5-4c0.1-0.1,0.3-0.5,0.3-0.8c0-0.6-0.6-0.4-0.6-1.7v-0.4
			l3,1.5v0.4c0,1.8-0.5,0-1.7,1.9l-1.8,2.8l2.9,10.5c0.6,2.2,1.1,1.2,1,2.7v0.4l-3.9-1.9v-0.4c0-1.3,0.6-0.4,0.6-1.2
			c0-0.4-0.1-0.7-0.2-1L188.5,208.5z"/>
		<path fill="#FFFFFF" d="M199.9,217.1c0.6,0.2,0.4,4.1,2.7,5.1c0.8,0.3,1.6-0.4,1.6-2.4c0-4.4-4.7-4.8-4.6-11.5
			c0-3.2,1.6-4.8,3.1-4.2c0.5,0.2,1,0.7,1.3,1.1c0.3,0.4,0.5,0.8,0.7,0.9c0.2,0.1,0.2-0.2,0.3-0.4l0.6,0.2l-0.1,4.7l-0.4-0.2
			c-0.9-0.4-0.3-4-2.2-4.7c-0.7-0.3-1.4,0.4-1.4,1.9c0,4,4.7,4.2,4.6,11.1c0,3.8-1.8,5.7-3.6,5c-1.2-0.5-1.8-1.8-2.1-1.9
			c-0.2-0.1-0.3,0.1-0.3,0.4l-0.8-0.3l0.1-4.9L199.9,217.1z"/>
		<path fill="#FFFFFF" d="M206.1,205.6c0.3,0.5,0.7,0.7,1.1,0.8l5.8,1.3c0.4,0.1,0.8,0,1.1-0.3l0,4.9l-0.4-0.1c-0.9-0.2,0.3-3-2-3.5
			l-0.5-0.1l0,14.2c0,2.1,0.9,0.8,0.9,2.5v0.4l-3.9-0.9v-0.4c0-1.7,0.9-0.1,0.8-2.1l0-14.2l-0.5-0.1c-2.3-0.5-1.1,2.8-2,2.6
			l-0.4-0.1L206.1,205.6z"/>
		<path fill="#FFFFFF" d="M215.7,221.2l-0.4,1.7c-0.1,0.4-0.2,0.9-0.2,1.4c0,1.5,0.9,0.2,0.9,2.1v0.4l-2.6-0.7l0-0.4
			c0-2.1,0.5,0.5,1.2-3.1l2.2-11.9l-0.1-0.7c0-0.1-0.2-0.9-0.2-1.1c0-0.3,0.2-0.4,0.3-0.5l1.1-0.8c0.1-0.1,0.2-0.2,0.3-0.2
			c0.2,0,0.2,0.6,0.3,1.1l3,16.9c0.4,2.3,1,0.7,1,2.6l0,0.4l-3.8-1v-0.4c0-1.9,0.7-0.4,0.7-1.5c0-0.3,0-0.6-0.1-0.9l-0.5-2.7
			L215.7,221.2z M215.9,219.7l2.5,0.7l-1.3-7.2L215.9,219.7z"/>
		<path fill="#FFFFFF" d="M221,209c0.3,0.5,0.7,0.7,1.1,0.8l5.8,1.2c0.4,0.1,0.8,0,1.1-0.4v5l-0.4-0.1c-0.9-0.2,0.3-3-2-3.4L226,212
			l0,14.3c0,2.1,0.9,0.7,0.9,2.5v0.4l-3.9-0.8V228c0-1.8,0.9-0.1,0.9-2.2v-14.3l-0.5-0.1c-2.3-0.5-1.1,2.8-2,2.6L221,214L221,209
			L221,209z"/>
		<path fill="#FFFFFF" d="M232.3,219.9l0.9,0.1c1.2,0.2,0.4-1.8,1.4-1.6l0.2,0l0,5.2l-0.4-0.1c-0.8-0.1-0.3-2-1.3-2.1l-0.9-0.1
			l0,7.3l2.3,0.3c1.9,0.3,0.9-3.2,2-3.1l0.3,0l0,4.8l-7.6-1.1l0-0.5c0-1.6,0.8-0.1,0.8-2.1l-0.1-12.9c0-2-0.8-0.7-0.8-2.4v-0.5
			l6,0.9c0.4,0.1,0.8-0.1,1.1-0.4l0,4.9l-0.4-0.1c-0.8-0.1-0.4-2.9-1.9-3.1l-1.8-0.2L232.3,219.9z"/>
		<path fill="#FFFFFF" d="M245.7,221.3l1,0.1c1.2,0.1,0.4-1.8,1.4-1.8l0.2,0l0,5.2l-0.5,0c-0.7,0-0.2-1.9-1.2-2l-1.1,0l0,6.1
			c0,2,0.8,0.6,0.8,2.3v0.4l-3.8-0.2l0-0.4c0-1.7,0.8-0.2,0.7-2.3l-0.1-12.8c0-1-0.2-1.2-0.4-1.3c-0.2-0.1-0.4-0.2-0.4-1l0-0.5
			l6.1,0.3c0.4,0,0.8-0.1,1.1-0.5l0,4.9l-0.4,0c-0.8,0-0.2-2.9-1.8-3l-2-0.1L245.7,221.3z"/>
		<path fill="#FFFFFF" d="M251.4,226.6l-0.4,1.7c-0.1,0.4-0.2,0.9-0.2,1.3c0,1.3,0.9,0,1,1.6l0,0.4l-2.9,0l0-0.4
			c0-1.9,0.6,0.3,1.3-3.1l2.4-11.3l-0.1-0.6c0-0.1-0.2-0.7-0.2-0.9c0-0.3,0.2-0.4,0.3-0.5l1.2-1c0.1-0.1,0.2-0.2,0.3-0.2
			c0.2,0,0.2,0.5,0.3,0.9l3.4,14.5c0.5,2,1.1,0.4,1.1,2.1l0,0.4l-4.2,0l0-0.4c0-1.7,0.8-0.5,0.8-1.6c0-0.3-0.1-0.5-0.1-0.8l-0.6-2.3
			L251.4,226.6z M251.7,225.3l2.8,0L253,219L251.7,225.3z"/>
		<path fill="#FFFFFF" d="M262.2,213.1v0.4c0,1.8-0.8,0.3-0.8,2.4l-0.1,12.9c0,2.1,0.8,0.6,0.7,2.3l0,0.4l-3.7,0.1v-0.4
			c0-1.7,0.8-0.3,0.8-2.4l0.1-12.9c0-2.1-0.8-0.6-0.8-2.3v-0.4L262.2,213.1z"/>
		<path fill="#FFFFFF" d="M266.2,228.4c0,2,0.7,0.5,0.7,2.1v0.5l-3.7,0.4V231c0-1.6,0.7-0.3,0.7-2.3l0-12.8c0-2-0.7-0.5-0.8-2.1
			v-0.5l5.3-0.6c1-0.1,2.5,0.8,2.5,4.1c0,3.6-1.6,4.8-2.8,4.9l-0.4,0.1v0c1,0,1.3,0.6,1.8,2.2l1.5,4.6c0.4,1.2,0.8,0.1,0.8,1.5v0.5
			l-2.9,0.4l-1.9-6.3c-0.2-0.7-0.5-1.9-0.9-1.9l-0.1,0L266.2,228.4z M266.1,221.1l0.6-0.1c0.8-0.1,1.9-0.7,1.9-3.8
			c0-2.5-0.9-3.2-1.4-3.1l-1.2,0.1L266.1,221.1L266.1,221.1z"/>
	</g>
	<path fill="none" stroke="#FFDD00" stroke-width="4.1855" stroke-linecap="round" stroke-linejoin="round" d="M91.5,61.5h-8V35.9
		c23.3,7.5,46.7-1.5,65.7-12.7c3.3-2.5,6.6-4.9,8.5-8.5l5.3,3v14.3l-37.1,11l0.1,41.2c0,1.3,1.3,2,2.3,2.1l-0.1,4.6h-20v-4.6h0.1
		c0,0,0,0,0,0c1.2-0.2,2.6-0.8,2.8-2.1V48l-0.5-0.5C103,49.2,94.6,53.5,91.5,61.5z M172.1,84.1V48.2c0-1.1,0.5-3.2,2.3-3.6v-5.1
		h-20.1v5.1c1,0.4,2.3,0.8,2.3,3.1v6.8H149v-6.4c0-2.1,0.9-3.2,2.8-3.7v-4.9l-20.7,5.4l0,4.5c0,0,2.8,0.8,2.8,3.4v31.3
		c-0.5,1-1.5,1.9-2.5,2.1c0,0,0,0,0,0h-0.1v4.6h20.5l0.1-4.6c-1.7,0-2.9-0.6-2.9-2.1V63.6h7.6v20.5c0,1.8-1.5,1.9-2.4,2.1
		c0,0,0,0,0,0h-0.1v4.6h20.6v-4.6C174,86.1,172.7,85.5,172.1,84.1z M206.8,47.4c1.2,0.1,1.6,1.1,1.6,1.1l0.1,1.8l5.5,0V39.5l-16.8,0
		H177v5.1c1,0.4,2.3,0.8,2.3,3.1l0,0v36.3c0,1.8-1.5,1.9-2.4,2.1c0,0,0,0,0,0h-0.1v4.6l47.5,0l5.5-12.1l-4.9-4.9
		c-7.6,8.9-18.3,11.1-30.2,9.9V62h6.7c1,0.1,1.8,0.9,1.8,1.9h4.6V52.7h-4.6c0,1.2-1,2.2-2.2,2.2h-6.3v-7.5
		C194.8,47.4,206.8,47.4,206.8,47.4z M118.1,125.8l-5.4-13.8l-4.8,13.8H118.1z M224.1,106.5c-2.7-0.8-8.6-0.4-8.6-0.4v16.3
		c0,0,6,0,8.7-1c2.7-1,5.1-3.4,5.3-7C229.7,110.8,226.8,107.2,224.1,106.5z M84.1,152.8l19.1-58.1h26.2l24.5,63.2
		c1.2,1.3,3.2,1.7,4.6,0.9c0.5-0.3,0.9-1.3,0.9-1.8v-50.6c0-1.4-1.6-3.9-3.5-4.2L155,102v-7.3h11.3h12h8.1h0.2v7.3
		c-2,0-4.9,1.9-4.9,4.3V164c0,2.5,2.6,4.5,5.8,4.5c3.2,0,5.9-2,5.9-4.5v-57.7c-0.1-1.9-1.7-3.5-3.5-4.2l-0.5-0.2l0-7.3h45.6
		c6.2,0.8,12.4,4.7,15.4,10.6c2.7,5.9,2.4,14.5-1.8,19.4c-3.1,3.6-5.1,4.3-8.6,6.2c6.1,14.2,12.8,28.2,19.6,42.1c3.9,5.4,6,9,16.3,9
		v15.2c-8,3-16,3.3-23.2,2.9l-3.3-0.4L219,134.1c-0.6-1-1.7-1.1-2.5-0.7c-0.5,0.2-1,1-1,1.8v39.7c1.2,3.8,5.3,6.4,9.2,6.7
		c-0.1,4.8,0.5,9.8,0,14.5c-37-6.5-68.6-29.4-107.9-31.1v-9c0,0,2.2-0.4,6.5-0.4c4.3,0,4.8-4,3.8-6.7c-0.7-1.8-2.7-6.7-3.9-9.6
		h-19.9c-0.6,1.7-1.7,4.6-3.3,9.3c-3,8.5,4.1,7.4,9.4,7.4v9c-23.4,1.4-44.6,8.9-65.6,16.6v-14.8c3.3-0.8,6.3-2.6,7.6-5.9l0.3-3.7
		v-40.9V77.3c-0.5-1.8-1.9-3.2-3.5-4.2c-1.3-0.7-3.4-0.7-4.4-0.9c0.2-2.5-0.1-5.2,0-7h62.1v20.5h-6.4v-2.4c0-3.6-2.9-6.5-6.5-6.5H74
		l0,20.3h9.1c0.1,0,0.2-0.1,0.3-0.1c2.6-1,3.8-3.6,3.9-6.2h5.9v23.7h-5.9c0.1-0.6-0.6-3.6-1.8-5c-0.9-0.8-2.3-1.1-3.9-1.3h-7.8v46.5
		c0,1,1.9,2.7,3.2,3.1c1.9,0.6,4.1,0.1,5.5-1.4C83.3,155.5,83.8,153.5,84.1,152.8z"/>
	<path fill="#EF4E23" d="M91.5,61.5h-8V35.9c23.3,7.5,46.7-1.5,65.7-12.7c3.3-2.5,6.6-4.9,8.5-8.5l5.3,3v14.3l-37.1,11l0.1,41.2
		c0,1.3,1.3,2,2.3,2.1l-0.1,4.6h-20v-4.6h0.1c0,0,0,0,0,0c1.2-0.2,2.6-0.8,2.8-2.1V48l-0.5-0.5C103,49.2,94.6,53.5,91.5,61.5z
		 M172.1,84.1V48.2c0-1.1,0.5-3.2,2.3-3.6v-5.1h-20.1v5.1c1,0.4,2.3,0.8,2.3,3.1v6.8H149v-6.4c0-2.1,0.9-3.2,2.8-3.7v-4.9l-20.7,5.4
		l0,4.5c0,0,2.8,0.8,2.8,3.4v31.3c-0.5,1-1.5,1.9-2.5,2.1c0,0,0,0,0,0h-0.1v4.6h20.5l0.1-4.6c-1.7,0-2.9-0.6-2.9-2.1V63.6h7.6v20.5
		c0,1.8-1.5,1.9-2.4,2.1c0,0,0,0,0,0h-0.1v4.6h20.6v-4.6C174,86.1,172.7,85.5,172.1,84.1z M206.8,47.4c1.2,0.1,1.6,1.1,1.6,1.1
		l0.1,1.8l5.5,0V39.5l-16.8,0H177v5.1c1,0.4,2.3,0.8,2.3,3.1l0,0v36.3c0,1.8-1.5,1.9-2.4,2.1c0,0,0,0,0,0h-0.1v4.6l47.5,0l5.5-12.1
		l-4.9-4.9c-7.6,8.9-18.3,11.1-30.2,9.9V62h6.7c1,0.1,1.8,0.9,1.8,1.9h4.6V52.7h-4.6c0,1.2-1,2.2-2.2,2.2h-6.3v-7.5
		C194.8,47.4,206.8,47.4,206.8,47.4z M118.1,125.8l-5.4-13.8l-4.8,13.8H118.1z M224.1,106.5c-2.7-0.8-8.6-0.4-8.6-0.4v16.3
		c0,0,6,0,8.7-1c2.7-1,5.1-3.4,5.3-7C229.7,110.8,226.8,107.2,224.1,106.5z M84.1,152.8l19.1-58.1h26.2l24.5,63.2
		c1.2,1.3,3.2,1.7,4.6,0.9c0.5-0.3,0.9-1.3,0.9-1.8v-50.6c0-1.4-1.6-3.9-3.5-4.2L155,102v-7.3h11.3h12h8.1h0.2v7.3
		c-2,0-4.9,1.9-4.9,4.3V164c0,2.5,2.6,4.5,5.8,4.5c3.2,0,5.9-2,5.9-4.5v-57.7c-0.1-1.9-1.7-3.5-3.5-4.2l-0.5-0.2l0-7.3h45.6
		c6.2,0.8,12.4,4.7,15.4,10.6c2.7,5.9,2.4,14.5-1.8,19.4c-3.1,3.6-5.1,4.3-8.6,6.2c6.1,14.2,12.8,28.2,19.6,42.1c3.9,5.4,6,9,16.3,9
		v15.2c-8,3-16,3.3-23.2,2.9l-3.3-0.4L219,134.1c-0.6-1-1.7-1.1-2.5-0.7c-0.5,0.2-1,1-1,1.8v39.7c1.2,3.8,5.3,6.4,9.2,6.7
		c-0.1,4.8,0.5,9.8,0,14.5c-37-6.5-68.6-29.4-107.9-31.1v-9c0,0,2.2-0.4,6.5-0.4c4.3,0,4.8-4,3.8-6.7c-0.7-1.8-2.7-6.7-3.9-9.6
		h-19.9c-0.6,1.7-1.7,4.6-3.3,9.3c-3,8.5,4.1,7.4,9.4,7.4v9c-23.4,1.4-44.6,8.9-65.6,16.6v-14.8c3.3-0.8,6.3-2.6,7.6-5.9l0.3-3.7
		v-40.9V77.3c-0.5-1.8-1.9-3.2-3.5-4.2c-1.3-0.7-3.4-0.7-4.4-0.9c0.2-2.5-0.1-5.2,0-7h62.1v20.5h-6.4v-2.4c0-3.6-2.9-6.5-6.5-6.5H74
		l0,20.3h9.1c0.1,0,0.2-0.1,0.3-0.1c2.6-1,3.8-3.6,3.9-6.2h5.9v23.7h-5.9c0.1-0.6-0.6-3.6-1.8-5c-0.9-0.8-2.3-1.1-3.9-1.3h-7.8v46.5
		c0,1,1.9,2.7,3.2,3.1c1.9,0.6,4.1,0.1,5.5-1.4C83.3,155.5,83.8,153.5,84.1,152.8z"/>
</g>
</svg>
